<svg width="676" height="196" data-v-26f9ed7a=""><g data-v-26f9ed7a=""><g data-v-26f9ed7a=""><line x1="0" x2="677" y1="196" y2="196" stroke-dasharray="1, 7.666666666666666" data-v-26f9ed7a=""></line></g><g data-v-26f9ed7a=""><path d="M0,196L8.666666666666666,119.69042000943838L17.333333333333332,114.53374233128842L26,122.69655497876353L34.666666666666664,140.9183577159035L43.33333333333333,142.6526663520527L52,152.08730533270418L60.666666666666664,139.8084001887682L69.33333333333333,136.2010382255782L78,156.52713544124583L86.66666666666666,124.15337423312869L95.33333333333333,138.02784332232181L104,137.26474752241631L112.66666666666666,113.3081642284097L121.33333333333333,117.21613968853231L130,117.0311467673431L138.66666666666666,119.92166116092483L147.33333333333334,126.46578574799413L156,130.53563001415736L164.66666666666666,114.14063237376097L173.33333333333331,116.05993393109938L182,119.22793770646513L190.66666666666666,124.91647003303457L199.33333333333334,120.38414346389808L208,119.52855120339777L216.66666666666669,134.0967437470506L225.33333333333331,141.4964605946202L234,147.27748938178362L242.66666666666666,131.09060877772546L251.33333333333334,123.39027843322319L260,120.31477111845226L268.66666666666663,120.8235016517223L277.3333333333333,114.90372817366686L286,110.97262859839523L294.6666666666667,114.90372817366686L303.33333333333337,113.35441245870689L312,117.21613968853231L320.66666666666663,107.9664936290701L329.3333333333333,105.88532326569148L338,106.81028787163756L346.66666666666663,107.9664936290701L355.33333333333337,97.56064181217535L364,88.31099575271352L372.6666666666667,91.77961302501193L381.3333333333333,62.6432279377063L389.99999999999994,59.98395469561102L398.6666666666667,54.78102878716384L407.3333333333333,56.3303445021234L416,69.9042000943839L424.6666666666667,66.01934874940987L433.33333333333337,56.3303445021234L442,53.62482302973091L450.66666666666663,54.78102878716384L459.33333333333337,50.734308636149194L468,54.78102878716384L476.6666666666667,55.93723454459635L485.3333333333333,64.81689476168015L493.99999999999994,60.747050495516895L502.6666666666667,44.65266635205271L511.3333333333333,36.28173666823981L520,31.31005191127906L528.6666666666666,25.87588485134506L537.3333333333333,22.89287399716853L546,19.932987258140606L554.6666666666666,11.60830580462489L563.3333333333334,11.562057574327264L572,31.263803680981436L580.6666666666666,41.184049079754736L589.3333333333334,22.638508730533097L598,14.77630957999064L606.6666666666667,24.234072675790266L615.3333333333334,23.33223218499277L624,11.28456819254364L632.6666666666666,24.372817366682273L641.3333333333333,10.845210004718988L650,3.3761208117035775L658.6666666666666,3.6998584237848062L667.3333333333334,0L676,2.613025011798088" fill="none" stroke-width="2" stroke="rgb(0, 200, 5)" data-v-26f9ed7a=""></path></g><!----><g data-v-26f9ed7a=""><circle fill="rgb(0, 200, 5)" cx="0" cy="196" r="5" data-v-26f9ed7a="" style="display: none;"></circle><circle fill="rgb(0, 200, 5)" cx="8.666666666666666" cy="119.69042000943838" r="5" data-v-26f9ed7a="" style="display: none;"></circle><circle fill="rgb(0, 200, 5)" cx="17.333333333333332" cy="114.53374233128842" r="5" data-v-26f9ed7a="" style="display: none;"></circle><circle fill="rgb(0, 200, 5)" cx="26" cy="122.69655497876353" r="5" data-v-26f9ed7a="" style="display: none;"></circle><circle fill="rgb(0, 200, 5)" cx="34.666666666666664" cy="140.9183577159035" r="5" data-v-26f9ed7a="" style="display: none;"></circle><circle fill="rgb(0, 200, 5)" cx="43.33333333333333" cy="142.6526663520527" r="5" data-v-26f9ed7a="" style="display: none;"></circle><circle fill="rgb(0, 200, 5)" cx="52" cy="152.08730533270418" r="5" data-v-26f9ed7a="" style="display: none;"></circle><circle fill="rgb(0, 200, 5)" cx="60.666666666666664" cy="139.8084001887682" r="5" data-v-26f9ed7a="" style="display: none;"></circle><circle fill="rgb(0, 200, 5)" cx="69.33333333333333" cy="136.2010382255782" r="5" data-v-26f9ed7a="" style="display: none;"></circle><circle fill="rgb(0, 200, 5)" cx="78" cy="156.52713544124583" r="5" data-v-26f9ed7a="" style="display: none;"></circle><circle fill="rgb(0, 200, 5)" cx="86.66666666666666" cy="124.15337423312869" r="5" data-v-26f9ed7a="" style="display: none;"></circle><circle fill="rgb(0, 200, 5)" cx="95.33333333333333" cy="138.02784332232181" r="5" data-v-26f9ed7a="" style="display: none;"></circle><circle fill="rgb(0, 200, 5)" cx="104" cy="137.26474752241631" r="5" data-v-26f9ed7a="" style="display: none;"></circle><circle fill="rgb(0, 200, 5)" cx="112.66666666666666" cy="113.3081642284097" r="5" data-v-26f9ed7a="" style="display: none;"></circle><circle fill="rgb(0, 200, 5)" cx="121.33333333333333" cy="117.21613968853231" r="5" data-v-26f9ed7a="" style="display: none;"></circle><circle fill="rgb(0, 200, 5)" cx="130" cy="117.0311467673431" r="5" data-v-26f9ed7a="" style="display: none;"></circle><circle fill="rgb(0, 200, 5)" cx="138.66666666666666" cy="119.92166116092483" r="5" data-v-26f9ed7a="" style="display: none;"></circle><circle fill="rgb(0, 200, 5)" cx="147.33333333333334" cy="126.46578574799413" r="5" data-v-26f9ed7a="" style="display: none;"></circle><circle fill="rgb(0, 200, 5)" cx="156" cy="130.53563001415736" r="5" data-v-26f9ed7a="" style="display: none;"></circle><circle fill="rgb(0, 200, 5)" cx="164.66666666666666" cy="114.14063237376097" r="5" data-v-26f9ed7a="" style="display: none;"></circle><circle fill="rgb(0, 200, 5)" cx="173.33333333333331" cy="116.05993393109938" r="5" data-v-26f9ed7a="" style="display: none;"></circle><circle fill="rgb(0, 200, 5)" cx="182" cy="119.22793770646513" r="5" data-v-26f9ed7a="" style="display: none;"></circle><circle fill="rgb(0, 200, 5)" cx="190.66666666666666" cy="124.91647003303457" r="5" data-v-26f9ed7a="" style="display: none;"></circle><circle fill="rgb(0, 200, 5)" cx="199.33333333333334" cy="120.38414346389808" r="5" data-v-26f9ed7a="" style="display: none;"></circle><circle fill="rgb(0, 200, 5)" cx="208" cy="119.52855120339777" r="5" data-v-26f9ed7a="" style="display: none;"></circle><circle fill="rgb(0, 200, 5)" cx="216.66666666666669" cy="134.0967437470506" r="5" data-v-26f9ed7a="" style="display: none;"></circle><circle fill="rgb(0, 200, 5)" cx="225.33333333333331" cy="141.4964605946202" r="5" data-v-26f9ed7a="" style="display: none;"></circle><circle fill="rgb(0, 200, 5)" cx="234" cy="147.27748938178362" r="5" data-v-26f9ed7a="" style="display: none;"></circle><circle fill="rgb(0, 200, 5)" cx="242.66666666666666" cy="131.09060877772546" r="5" data-v-26f9ed7a="" style="display: none;"></circle><circle fill="rgb(0, 200, 5)" cx="251.33333333333334" cy="123.39027843322319" r="5" data-v-26f9ed7a="" style="display: none;"></circle><circle fill="rgb(0, 200, 5)" cx="260" cy="120.31477111845226" r="5" data-v-26f9ed7a="" style="display: none;"></circle><circle fill="rgb(0, 200, 5)" cx="268.66666666666663" cy="120.8235016517223" r="5" data-v-26f9ed7a="" style="display: none;"></circle><circle fill="rgb(0, 200, 5)" cx="277.3333333333333" cy="114.90372817366686" r="5" data-v-26f9ed7a="" style="display: none;"></circle><circle fill="rgb(0, 200, 5)" cx="286" cy="110.97262859839523" r="5" data-v-26f9ed7a="" style="display: none;"></circle><circle fill="rgb(0, 200, 5)" cx="294.6666666666667" cy="114.90372817366686" r="5" data-v-26f9ed7a="" style="display: none;"></circle><circle fill="rgb(0, 200, 5)" cx="303.33333333333337" cy="113.35441245870689" r="5" data-v-26f9ed7a="" style="display: none;"></circle><circle fill="rgb(0, 200, 5)" cx="312" cy="117.21613968853231" r="5" data-v-26f9ed7a="" style="display: none;"></circle><circle fill="rgb(0, 200, 5)" cx="320.66666666666663" cy="107.9664936290701" r="5" data-v-26f9ed7a="" style="display: none;"></circle><circle fill="rgb(0, 200, 5)" cx="329.3333333333333" cy="105.88532326569148" r="5" data-v-26f9ed7a="" style="display: none;"></circle><circle fill="rgb(0, 200, 5)" cx="338" cy="106.81028787163756" r="5" data-v-26f9ed7a="" style="display: none;"></circle><circle fill="rgb(0, 200, 5)" cx="346.66666666666663" cy="107.9664936290701" r="5" data-v-26f9ed7a="" style="display: none;"></circle><circle fill="rgb(0, 200, 5)" cx="355.33333333333337" cy="97.56064181217535" r="5" data-v-26f9ed7a="" style="display: none;"></circle><circle fill="rgb(0, 200, 5)" cx="364" cy="88.31099575271352" r="5" data-v-26f9ed7a="" style="display: none;"></circle><circle fill="rgb(0, 200, 5)" cx="372.6666666666667" cy="91.77961302501193" r="5" data-v-26f9ed7a="" style="display: none;"></circle><circle fill="rgb(0, 200, 5)" cx="381.3333333333333" cy="62.6432279377063" r="5" data-v-26f9ed7a="" style="display: none;"></circle><circle fill="rgb(0, 200, 5)" cx="389.99999999999994" cy="59.98395469561102" r="5" data-v-26f9ed7a="" style="display: none;"></circle><circle fill="rgb(0, 200, 5)" cx="398.6666666666667" cy="54.78102878716384" r="5" data-v-26f9ed7a="" style="display: none;"></circle><circle fill="rgb(0, 200, 5)" cx="407.3333333333333" cy="56.3303445021234" r="5" data-v-26f9ed7a="" style="display: none;"></circle><circle fill="rgb(0, 200, 5)" cx="416" cy="69.9042000943839" r="5" data-v-26f9ed7a="" style="display: none;"></circle><circle fill="rgb(0, 200, 5)" cx="424.6666666666667" cy="66.01934874940987" r="5" data-v-26f9ed7a="" style="display: none;"></circle><circle fill="rgb(0, 200, 5)" cx="433.33333333333337" cy="56.3303445021234" r="5" data-v-26f9ed7a="" style="display: none;"></circle><circle fill="rgb(0, 200, 5)" cx="442" cy="53.62482302973091" r="5" data-v-26f9ed7a="" style="display: none;"></circle><circle fill="rgb(0, 200, 5)" cx="450.66666666666663" cy="54.78102878716384" r="5" data-v-26f9ed7a="" style="display: none;"></circle><circle fill="rgb(0, 200, 5)" cx="459.33333333333337" cy="50.734308636149194" r="5" data-v-26f9ed7a="" style="display: none;"></circle><circle fill="rgb(0, 200, 5)" cx="468" cy="54.78102878716384" r="5" data-v-26f9ed7a="" style="display: none;"></circle><circle fill="rgb(0, 200, 5)" cx="476.6666666666667" cy="55.93723454459635" r="5" data-v-26f9ed7a="" style="display: none;"></circle><circle fill="rgb(0, 200, 5)" cx="485.3333333333333" cy="64.81689476168015" r="5" data-v-26f9ed7a="" style="display: none;"></circle><circle fill="rgb(0, 200, 5)" cx="493.99999999999994" cy="60.747050495516895" r="5" data-v-26f9ed7a="" style="display: none;"></circle><circle fill="rgb(0, 200, 5)" cx="502.6666666666667" cy="44.65266635205271" r="5" data-v-26f9ed7a="" style="display: none;"></circle><circle fill="rgb(0, 200, 5)" cx="511.3333333333333" cy="36.28173666823981" r="5" data-v-26f9ed7a="" style="display: none;"></circle><circle fill="rgb(0, 200, 5)" cx="520" cy="31.31005191127906" r="5" data-v-26f9ed7a="" style="display: none;"></circle><circle fill="rgb(0, 200, 5)" cx="528.6666666666666" cy="25.87588485134506" r="5" data-v-26f9ed7a="" style="display: none;"></circle><circle fill="rgb(0, 200, 5)" cx="537.3333333333333" cy="22.89287399716853" r="5" data-v-26f9ed7a="" style="display: none;"></circle><circle fill="rgb(0, 200, 5)" cx="546" cy="19.932987258140606" r="5" data-v-26f9ed7a="" style="display: none;"></circle><circle fill="rgb(0, 200, 5)" cx="554.6666666666666" cy="11.60830580462489" r="5" data-v-26f9ed7a="" style="display: none;"></circle><circle fill="rgb(0, 200, 5)" cx="563.3333333333334" cy="11.562057574327264" r="5" data-v-26f9ed7a="" style="display: none;"></circle><circle fill="rgb(0, 200, 5)" cx="572" cy="31.263803680981436" r="5" data-v-26f9ed7a="" style="display: none;"></circle><circle fill="rgb(0, 200, 5)" cx="580.6666666666666" cy="41.184049079754736" r="5" data-v-26f9ed7a="" style="display: none;"></circle><circle fill="rgb(0, 200, 5)" cx="589.3333333333334" cy="22.638508730533097" r="5" data-v-26f9ed7a="" style="display: none;"></circle><circle fill="rgb(0, 200, 5)" cx="598" cy="14.77630957999064" r="5" data-v-26f9ed7a="" style="display: none;"></circle><circle fill="rgb(0, 200, 5)" cx="606.6666666666667" cy="24.234072675790266" r="5" data-v-26f9ed7a="" style="display: none;"></circle><circle fill="rgb(0, 200, 5)" cx="615.3333333333334" cy="23.33223218499277" r="5" data-v-26f9ed7a="" style="display: none;"></circle><circle fill="rgb(0, 200, 5)" cx="624" cy="11.28456819254364" r="5" data-v-26f9ed7a="" style="display: none;"></circle><circle fill="rgb(0, 200, 5)" cx="632.6666666666666" cy="24.372817366682273" r="5" data-v-26f9ed7a="" style="display: none;"></circle><circle fill="rgb(0, 200, 5)" cx="641.3333333333333" cy="10.845210004718988" r="5" data-v-26f9ed7a="" style="display: none;"></circle><circle fill="rgb(0, 200, 5)" cx="650" cy="3.3761208117035775" r="5" data-v-26f9ed7a="" style="display: none;"></circle><circle fill="rgb(0, 200, 5)" cx="658.6666666666666" cy="3.6998584237848062" r="5" data-v-26f9ed7a="" style="display: none;"></circle><circle fill="rgb(0, 200, 5)" cx="667.3333333333334" cy="0" r="5" data-v-26f9ed7a="" style="display: none;"></circle><circle fill="rgb(0, 200, 5)" cx="676" cy="2.613025011798088" r="5" data-v-26f9ed7a="" style="display: none;"></circle></g></g></svg>